<?xml version="1.0" encoding="UTF-8"?>
<svg id="Layer_1" xmlns="http://www.w3.org/2000/svg" version="1.1" viewBox="0 0 1572.16 408.41">
  <!-- Generator: Adobe Illustrator 30.1.0, SVG Export Plug-In . SVG Version: 2.1.1 Build 136)  -->
  <defs>
    <style>
      .st0 {
        fill: #8e00ff;
      }
    </style>
  </defs>
  <path class="st0" d="M197.37,205.24c0-24.82,3.53-48.51,10.6-71.1,7.06-22.57,18.53-42.48,34.38-59.72,15.85-17.23,36.45-30.93,61.79-41.11,25.33-10.16,56.44-15.25,93.33-15.25h775.66c36.19,0,67.04,5.17,92.55,15.51,25.5,10.34,46.36,24.13,62.56,41.36,16.2,17.24,28,37.15,35.42,59.72,7.41,22.58,11.12,46.11,11.12,70.58s-3.71,47.92-11.12,70.32c-7.42,22.41-19.22,42.14-35.42,59.2-16.21,17.06-37.06,30.59-62.56,40.59-25.51,9.99-56.36,14.99-92.55,14.99H397.48c-36.89,0-67.99-5-93.33-14.99-25.34-9.99-45.94-23.44-61.79-40.33-15.86-16.88-27.32-36.53-34.38-58.94-7.07-22.4-10.6-46.02-10.6-70.84ZM321.47,204.72c0,11.72,1.46,22.93,4.39,33.61,2.93,10.69,8.35,20.16,16.29,28.44,7.93,8.27,18.61,14.83,32.06,19.65,13.44,4.83,30.85,7.24,52.23,7.24h718.26c20.68,0,37.92-2.41,51.71-7.24,13.78-4.82,24.64-11.38,32.58-19.65,7.92-8.27,13.52-17.75,16.8-28.44,3.27-10.68,4.91-21.89,4.91-33.61s-1.64-22.92-4.91-33.61c-3.28-10.68-8.88-20.16-16.8-28.44-7.93-8.27-18.79-14.91-32.58-19.91-13.79-4.99-31.02-7.5-51.71-7.5H426.43c-21.38,0-38.78,2.42-52.23,7.24-13.44,4.83-24.13,11.38-32.06,19.65-7.93,8.27-13.36,17.84-16.29,28.7-2.93,10.86-4.39,22.15-4.39,33.87Z"/>
</svg>