<?xml version="1.0" encoding="UTF-8"?>
<svg id="Layer_1" xmlns="http://www.w3.org/2000/svg" version="1.1" viewBox="0 0 1572.16 408.41">
  <!-- Generator: Adobe Illustrator 30.1.0, SVG Export Plug-In . SVG Version: 2.1.1 Build 136)  -->
  <defs>
    <style>
      .st0 {
        fill: #231f20;
      }

      .st1 {
        fill: #8e00ff;
      }
    </style>
  </defs>
  <g>
    <path class="st1" d="M0,232.31V50.13h90.05l77.82,119.46,75.74-119.46h91.35v182.18h-62.46v-122.84l-77.82,122.84h-52.31L62.46,109.73v122.58H0Z"/>
    <path class="st1" d="M360.98,141.74c0-12.49,1.78-24.42,5.34-35.79,3.55-11.36,9.32-21.38,17.31-30.06,7.98-8.67,18.35-15.57,31.1-20.69,12.75-5.12,28.41-7.68,46.98-7.68h390.43c18.22,0,33.75,2.6,46.59,7.81,12.84,5.21,23.33,12.15,31.49,20.82,8.15,8.68,14.09,18.7,17.83,30.06,3.73,11.37,5.6,23.21,5.6,35.53s-1.87,24.12-5.6,35.4c-3.73,11.28-9.67,21.21-17.83,29.8-8.16,8.59-18.65,15.4-31.49,20.43-12.84,5.03-28.37,7.55-46.59,7.55h-390.43c-18.57,0-34.22-2.52-46.98-7.55-12.75-5.03-23.12-11.8-31.1-20.3-7.98-8.5-13.75-18.39-17.31-29.67-3.56-11.28-5.34-23.16-5.34-35.66ZM423.45,141.48c0,5.9.74,11.54,2.21,16.92,1.47,5.38,4.2,10.15,8.2,14.31,3.99,4.16,9.37,7.46,16.14,9.89,6.77,2.43,15.53,3.64,26.29,3.64h361.54c10.41,0,19.08-1.21,26.03-3.64,6.94-2.43,12.4-5.73,16.4-9.89,3.99-4.16,6.81-8.93,8.46-14.31,1.65-5.38,2.47-11.02,2.47-16.92s-.82-11.54-2.47-16.92c-1.65-5.38-4.47-10.15-8.46-14.31-3.99-4.16-9.46-7.5-16.4-10.02-6.94-2.51-15.62-3.77-26.03-3.77h-361.54c-10.76,0-19.52,1.22-26.29,3.64-6.77,2.43-12.15,5.73-16.14,9.89-3.99,4.16-6.73,8.98-8.2,14.44-1.48,5.47-2.21,11.15-2.21,17.05Z"/>
    <path class="st1" d="M1122.81,232.31h-62.46v-59.86l-117.12-122.32h81.46l66.89,70.27,66.89-70.27h81.2l-116.86,121.8v60.38Z"/>
    <path class="st1" d="M1229.25,141.74c0-12.49,1.78-24.42,5.34-35.79,3.55-11.36,9.32-21.38,17.31-30.06,7.98-8.67,18.35-15.57,31.1-20.69,12.75-5.12,28.41-7.68,46.98-7.68h93.17c18.22,0,33.75,2.6,46.59,7.81,12.84,5.21,23.33,12.15,31.49,20.82,8.15,8.68,14.09,18.7,17.83,30.06,3.73,11.37,5.6,23.21,5.6,35.53s-1.87,24.12-5.6,35.4c-3.73,11.28-9.67,21.21-17.83,29.8-8.16,8.59-18.65,15.4-31.49,20.43-12.84,5.03-28.37,7.55-46.59,7.55h-93.17c-18.57,0-34.22-2.52-46.98-7.55-12.75-5.03-23.12-11.8-31.1-20.3-7.98-8.5-13.75-18.39-17.31-29.67-3.56-11.28-5.34-23.16-5.34-35.66ZM1291.72,141.48c0,5.9.74,11.54,2.21,16.92,1.47,5.38,4.2,10.15,8.2,14.31,3.99,4.16,9.37,7.46,16.14,9.89,6.77,2.43,15.53,3.64,26.29,3.64h64.28c10.41,0,19.08-1.21,26.03-3.64,6.94-2.43,12.4-5.73,16.4-9.89,3.99-4.16,6.81-8.93,8.46-14.31,1.65-5.38,2.47-11.02,2.47-16.92s-.83-11.54-2.47-16.92c-1.65-5.38-4.47-10.15-8.46-14.31-3.99-4.16-9.46-7.5-16.4-10.02-6.94-2.51-15.62-3.77-26.03-3.77h-64.28c-10.76,0-19.52,1.22-26.29,3.64-6.77,2.43-12.15,5.73-16.14,9.89-3.99,4.16-6.73,8.98-8.2,14.44-1.48,5.47-2.21,11.15-2.21,17.05Z"/>
  </g>
  <g>
    <path class="st0" d="M967.05,387.28h-16.03v-78.48h16.03v78.48ZM1014.77,387.28h-18.79l-24.07-34.76h-6.33v-10.75h6.33l23.77-32.98h18.24l-28.92,39.36-.06-3.68,29.85,42.8Z"/>
    <path class="st0" d="M1045.53,388.76c-10.32,0-17.99-2.37-23.03-7.12-5.04-4.75-7.55-11.63-7.55-20.63v-7.86c0-8.92,2.35-15.78,7.06-20.57,4.71-4.79,11.54-7.19,20.51-7.19,6.06,0,11.11,1.07,15.17,3.19,4.05,2.13,7.09,5.15,9.12,9.06,2.03,3.91,3.04,8.59,3.04,14.03v2.15c0,1.47-.07,2.98-.21,4.51-.14,1.54-.34,2.98-.58,4.33h-14.25c.12-2.25.19-4.39.21-6.42.02-2.03.03-3.86.03-5.5,0-2.82-.45-5.23-1.35-7.22-.9-1.98-2.27-3.49-4.12-4.51-1.84-1.02-4.2-1.54-7.06-1.54-4.22,0-7.33,1.17-9.33,3.5-2.01,2.33-3.01,5.65-3.01,9.95v5.59l.06,1.78v4.73c0,1.88.3,3.62.89,5.22.59,1.6,1.59,2.98,2.98,4.15,1.39,1.17,3.24,2.08,5.56,2.73,2.31.66,5.21.98,8.69.98,3.77,0,7.36-.42,10.78-1.26,3.42-.84,6.66-1.97,9.73-3.41l-1.35,12.4c-2.74,1.52-5.97,2.71-9.67,3.59s-7.81,1.32-12.31,1.32ZM1065.86,362.66h-42.56v-10.44h42.56v10.44Z"/>
    <path class="st0" d="M1107.99,388.76c-10.32,0-17.99-2.37-23.03-7.12-5.04-4.75-7.55-11.63-7.55-20.63v-7.86c0-8.92,2.35-15.78,7.06-20.57,4.71-4.79,11.54-7.19,20.51-7.19,6.06,0,11.11,1.07,15.17,3.19,4.05,2.13,7.09,5.15,9.12,9.06,2.03,3.91,3.04,8.59,3.04,14.03v2.15c0,1.47-.07,2.98-.21,4.51-.14,1.54-.34,2.98-.58,4.33h-14.25c.12-2.25.19-4.39.21-6.42.02-2.03.03-3.86.03-5.5,0-2.82-.45-5.23-1.35-7.22-.9-1.98-2.27-3.49-4.12-4.51-1.84-1.02-4.2-1.54-7.06-1.54-4.22,0-7.33,1.17-9.33,3.5-2.01,2.33-3.01,5.65-3.01,9.95v5.59l.06,1.78v4.73c0,1.88.3,3.62.89,5.22.59,1.6,1.59,2.98,2.98,4.15,1.39,1.17,3.24,2.08,5.56,2.73,2.31.66,5.21.98,8.69.98,3.77,0,7.36-.42,10.78-1.26,3.42-.84,6.66-1.97,9.73-3.41l-1.35,12.4c-2.74,1.52-5.97,2.71-9.67,3.59s-7.81,1.32-12.31,1.32ZM1128.31,362.66h-42.56v-10.44h42.56v10.44Z"/>
    <path class="st0" d="M1157.85,408.41h-15.66v-81.37h15.72l-.61,15.29.31,2.76v24.13l-.18,2.83.43,16.52v19.84ZM1176.58,388.69c-3.6,0-6.65-.58-9.15-1.75-2.5-1.17-4.51-2.81-6.05-4.94s-2.63-4.63-3.29-7.49h-4.48l3.99-12.04c.08,2.87.67,5.28,1.75,7.25,1.08,1.96,2.6,3.44,4.54,4.42,1.94.98,4.23,1.47,6.85,1.47,3.97,0,7-1.16,9.09-3.47,2.09-2.31,3.13-5.74,3.13-10.29v-9.89c0-4.5-1.02-7.9-3.07-10.19-2.05-2.29-5.08-3.44-9.09-3.44-2.29,0-4.36.44-6.2,1.32-1.84.88-3.38,2.06-4.61,3.53-1.23,1.47-2.11,3.17-2.64,5.1l-3.68-8.47h4.36c.65-2.62,1.71-5,3.16-7.15,1.45-2.15,3.48-3.85,6.08-5.1s5.88-1.87,9.86-1.87c7.08,0,12.47,2.28,16.15,6.85,3.68,4.57,5.53,11.31,5.53,20.23v8.35c0,9.01-1.85,15.85-5.56,20.54-3.71,4.69-9.26,7.03-16.67,7.03Z"/>
    <path class="st0" d="M1229.82,388.76c-4.83,0-9.12-.46-12.87-1.38-3.75-.92-6.93-1.95-9.55-3.1l-1.41-13.63c3.11,1.43,6.54,2.68,10.29,3.75,3.75,1.07,7.87,1.6,12.37,1.6,3.93,0,6.78-.5,8.54-1.5,1.76-1,2.64-2.51,2.64-4.51v-.37c0-1.35-.4-2.46-1.2-3.32-.8-.86-2.2-1.65-4.21-2.36-2.01-.72-4.83-1.48-8.47-2.3-5.04-1.19-9.02-2.57-11.94-4.15-2.93-1.58-5.03-3.52-6.29-5.83-1.27-2.31-1.9-5.09-1.9-8.32v-.55c0-5.69,2.03-9.98,6.08-12.87,4.05-2.89,10.05-4.33,17.99-4.33,4.71,0,8.87.46,12.5,1.38s6.64,2.02,9.06,3.29l1.41,12.53c-2.87-1.35-6.08-2.49-9.64-3.41-3.56-.92-7.39-1.38-11.48-1.38-2.66,0-4.76.22-6.29.65-1.54.43-2.63,1.03-3.29,1.81-.65.78-.98,1.72-.98,2.82v.31c0,1.23.36,2.29,1.07,3.19.72.9,2.04,1.71,3.96,2.43,1.92.72,4.63,1.48,8.11,2.3,5.08,1.06,9.15,2.31,12.22,3.75,3.07,1.43,5.3,3.26,6.69,5.5,1.39,2.23,2.09,5.15,2.09,8.75v.74c0,6.22-2.11,10.87-6.33,13.94s-10.6,4.61-19.16,4.61Z"/>
    <path class="st0" d="M1279.44,388.69c-5.98,0-10.53-1.49-13.66-4.48s-4.7-7.25-4.7-12.77v-1.72c0-5.85,1.8-10.18,5.4-12.99,3.6-2.8,9.31-4.74,17.13-5.8l17.07-2.33.92,10.13-15.72,2.27c-3.44.45-5.89,1.27-7.34,2.46-1.45,1.19-2.18,2.93-2.18,5.22v.61c0,2.25.71,4,2.12,5.25,1.41,1.25,3.63,1.87,6.66,1.87,2.7,0,5.02-.43,6.94-1.29,1.92-.86,3.51-2,4.76-3.41,1.25-1.41,2.14-3,2.67-4.76l2.21,7.8h-2.7c-.65,2.58-1.71,4.92-3.16,7.03s-3.49,3.79-6.11,5.04-6.06,1.87-10.32,1.87ZM1314.69,387.28h-15.54l.55-14.74-.43-1.35v-18.85l-.06-2.7c0-3.93-1.08-6.82-3.22-8.66-2.15-1.84-5.66-2.76-10.53-2.76-4.14,0-8.01.54-11.64,1.63-3.62,1.09-6.97,2.34-10.04,3.78l1.35-12.53c1.8-.94,3.86-1.83,6.17-2.67,2.31-.84,4.9-1.52,7.77-2.06,2.86-.53,5.96-.8,9.27-.8,4.91,0,9.07.58,12.47,1.75,3.4,1.17,6.11,2.84,8.14,5,2.03,2.17,3.49,4.76,4.39,7.77s1.35,6.34,1.35,9.98v37.21Z"/>
    <path class="st0" d="M1342.02,387.28h-15.66v-81.18h15.66v81.18ZM1383.47,387.28h-18.42l-19.77-26.53h-5.34v-10.25h5.4l19.04-23.46h18.18l-24.44,29.66v-3.19l25.36,33.78Z"/>
    <path class="st0" d="M1414.05,388.76c-10.32,0-17.99-2.37-23.03-7.12-5.04-4.75-7.55-11.63-7.55-20.63v-7.86c0-8.92,2.35-15.78,7.06-20.57,4.71-4.79,11.54-7.19,20.51-7.19,6.06,0,11.11,1.07,15.17,3.19,4.05,2.13,7.09,5.15,9.12,9.06,2.03,3.91,3.04,8.59,3.04,14.03v2.15c0,1.47-.07,2.98-.21,4.51-.14,1.54-.34,2.98-.58,4.33h-14.25c.12-2.25.19-4.39.21-6.42.02-2.03.03-3.86.03-5.5,0-2.82-.45-5.23-1.35-7.22-.9-1.98-2.27-3.49-4.11-4.51-1.84-1.02-4.2-1.54-7.06-1.54-4.22,0-7.33,1.17-9.33,3.5-2.01,2.33-3.01,5.65-3.01,9.95v5.59l.06,1.78v4.73c0,1.88.3,3.62.89,5.22s1.59,2.98,2.98,4.15c1.39,1.17,3.24,2.08,5.56,2.73,2.31.66,5.21.98,8.69.98,3.77,0,7.36-.42,10.78-1.26,3.42-.84,6.66-1.97,9.73-3.41l-1.35,12.4c-2.74,1.52-5.97,2.71-9.67,3.59s-7.81,1.32-12.31,1.32ZM1434.38,362.66h-42.56v-10.44h42.56v10.44Z"/>
    <path class="st0" d="M1469.2,388.76c-4.83,0-9.12-.46-12.87-1.38s-6.93-1.95-9.55-3.1l-1.41-13.63c3.11,1.43,6.54,2.68,10.29,3.75,3.75,1.07,7.87,1.6,12.37,1.6,3.93,0,6.78-.5,8.54-1.5,1.76-1,2.64-2.51,2.64-4.51v-.37c0-1.35-.4-2.46-1.2-3.32-.8-.86-2.2-1.65-4.21-2.36-2.01-.72-4.83-1.48-8.47-2.3-5.04-1.19-9.02-2.57-11.94-4.15-2.93-1.58-5.03-3.52-6.29-5.83-1.27-2.31-1.9-5.09-1.9-8.32v-.55c0-5.69,2.03-9.98,6.08-12.87,4.05-2.89,10.05-4.33,17.99-4.33,4.71,0,8.88.46,12.5,1.38s6.64,2.02,9.06,3.29l1.41,12.53c-2.87-1.35-6.08-2.49-9.64-3.41-3.56-.92-7.39-1.38-11.48-1.38-2.66,0-4.76.22-6.29.65s-2.63,1.03-3.29,1.81c-.66.78-.98,1.72-.98,2.82v.31c0,1.23.36,2.29,1.07,3.19.71.9,2.04,1.71,3.96,2.43,1.92.72,4.62,1.48,8.11,2.3,5.08,1.06,9.15,2.31,12.22,3.75,3.07,1.43,5.3,3.26,6.69,5.5,1.39,2.23,2.09,5.15,2.09,8.75v.74c0,6.22-2.11,10.87-6.32,13.94-4.22,3.07-10.6,4.61-19.16,4.61Z"/>
    <path class="st0" d="M1511.08,388.76c-3.03,0-5.26-.8-6.69-2.39-1.43-1.6-2.15-3.81-2.15-6.63v-.61c0-2.87.72-5.1,2.15-6.69,1.43-1.6,3.66-2.39,6.69-2.39s5.22.8,6.69,2.39c1.47,1.6,2.21,3.83,2.21,6.69v.61c0,2.83-.74,5.04-2.21,6.63-1.47,1.6-3.71,2.39-6.69,2.39Z"/>
  </g>
  <g>
    <path d="M1541.97.1c15.61-1.31,28.81,10.33,30.08,25.39,1.31,15.39-10.07,28.75-25.3,30.13-15.28,1.39-28.8-10-30.19-25.16-1.41-15.31,9.73-29.04,25.41-30.36ZM1540.66,4.41c-13.25,2.04-21.95,14.58-19.77,27.39,2.16,12.71,14.27,21.5,26.96,19.53,12.87-1.99,21.88-14.15,19.93-26.94-1.96-12.87-13.86-22.03-27.13-19.99Z"/>
    <path d="M1559.16,36.95l-.14-11.16-4.81,9.48c-.75.14-1.93.11-2.6-.1l-4.7-9.45-.16,11.25-3.94-.02v-18.16s5.42-.01,5.42-.01l4.75,9.94,4.78-9.95,5.32-.02v18.2s-3.93.02-3.93.02Z"/>
    <polygon points="1534.63 36.95 1530.6 36.94 1530.59 22.3 1525.46 22.21 1525.48 18.75 1539.66 18.75 1539.68 22.23 1534.64 22.29 1534.63 36.95"/>
  </g>
</svg>